<svg xmlns="http://www.w3.org/2000/svg" fill="none" viewBox="0 0 555 100" height="100" width="555">
<path fill="url(#paint0_linear_1591_27)" d="M4.87805 39.939C2.18155 39.939 0 42.1278 0 44.8333V55.1667C0 57.8722 2.18155 60.061 4.87805 60.061C7.57455 60.061 9.7561 57.8722 9.7561 55.1667V44.8333C9.7561 42.1278 7.57455 39.939 4.87805 39.939Z"></path>
<path fill-opacity="0.1" fill="black" d="M4.87805 39.939C2.18155 39.939 0 42.1278 0 44.8333V55.1667C0 57.8722 2.18155 60.061 4.87805 60.061C7.57455 60.061 9.7561 57.8722 9.7561 55.1667V44.8333C9.7561 42.1278 7.57455 39.939 4.87805 39.939Z"></path>
<path fill="url(#paint1_linear_1591_27)" d="M24.3903 20.122C21.6938 20.122 19.5122 22.3073 19.5122 25.0086V74.9914C19.5122 77.6926 21.6938 79.878 24.3903 79.878C27.0868 79.878 29.2683 77.6926 29.2683 74.9914V25.0086C29.2683 22.3073 27.0868 20.122 24.3903 20.122Z"></path>
<path fill-opacity="0.1" fill="black" d="M24.3903 20.122C21.6938 20.122 19.5122 22.3073 19.5122 25.0086V74.9914C19.5122 77.6926 21.6938 79.878 24.3903 79.878C27.0868 79.878 29.2683 77.6926 29.2683 74.9914V25.0086C29.2683 22.3073 27.0868 20.122 24.3903 20.122Z"></path>
<path fill="url(#paint2_linear_1591_27)" d="M43.9025 0C41.206 0 39.0244 2.17452 39.0244 4.86234V95.1376C39.0244 97.8255 41.206 100 43.9025 100C46.599 100 48.7805 97.8255 48.7805 95.1376V4.86234C48.7805 2.17452 46.599 0 43.9025 0Z"></path>
<path fill-opacity="0.1" fill="black" d="M43.9025 0C41.206 0 39.0244 2.17452 39.0244 4.86234V95.1376C39.0244 97.8255 41.206 100 43.9025 100C46.599 100 48.7805 97.8255 48.7805 95.1376V4.86234C48.7805 2.17452 46.599 0 43.9025 0Z"></path>
<path fill="url(#paint3_linear_1591_27)" d="M63.4147 20.122C60.7182 20.122 58.5366 22.3073 58.5366 25.0086V74.9914C58.5366 77.6926 60.7182 79.878 63.4147 79.878C66.1112 79.878 68.2927 77.6926 68.2927 74.9914V25.0086C68.2927 22.3073 66.1112 20.122 63.4147 20.122Z"></path>
<path fill-opacity="0.1" fill="black" d="M63.4147 20.122C60.7182 20.122 58.5366 22.3073 58.5366 25.0086V74.9914C58.5366 77.6926 60.7182 79.878 63.4147 79.878C66.1112 79.878 68.2927 77.6926 68.2927 74.9914V25.0086C68.2927 22.3073 66.1112 20.122 63.4147 20.122Z"></path>
<path fill="url(#paint4_linear_1591_27)" d="M82.9269 39.939C80.2304 39.939 78.0488 42.1278 78.0488 44.8333V55.1667C78.0488 57.8722 80.2304 60.061 82.9269 60.061C85.6234 60.061 87.8049 57.8722 87.8049 55.1667V44.8333C87.8049 42.1278 85.6234 39.939 82.9269 39.939Z"></path>
<path fill-opacity="0.1" fill="black" d="M82.9269 39.939C80.2304 39.939 78.0488 42.1278 78.0488 44.8333V55.1667C78.0488 57.8722 80.2304 60.061 82.9269 60.061C85.6234 60.061 87.8049 57.8722 87.8049 55.1667V44.8333C87.8049 42.1278 85.6234 39.939 82.9269 39.939Z"></path>
<path fill="#202020" d="M117.805 51.635V49.715C117.805 32.965 128.385 21.185 144.495 21.185C157.365 21.185 166.275 28.825 168.245 40.585C168.445 41.805 167.485 42.905 166.255 42.905H160.775C159.825 42.905 159.005 42.225 158.815 41.295C157.255 33.695 151.995 29.205 144.425 29.205C133.765 29.205 127.435 37.615 127.435 49.725V51.645C127.435 63.745 133.845 72.085 144.425 72.085C152.475 72.085 157.825 67.095 158.855 59.425C158.985 58.425 159.825 57.665 160.845 57.665H166.305C167.525 57.665 168.475 58.745 168.305 59.955C166.565 71.755 157.765 80.185 144.435 80.185C128.325 80.185 117.825 68.575 117.825 51.655L117.805 51.635Z"></path>
<path fill="#202020" d="M175.285 77.2448V21.8748C175.285 20.7448 176.205 19.8248 177.335 19.8248H182.045C183.225 19.8248 184.175 20.7748 184.175 21.9548V44.1848C186.415 40.1048 190.665 36.8948 197.235 36.8948C207.255 36.8948 211.495 43.1348 211.495 52.5148V77.2548C211.495 78.2948 210.655 79.1248 209.625 79.1248H204.645C203.605 79.1248 202.775 78.2848 202.775 77.2548V54.6848C202.775 47.9548 200.285 44.1848 194.275 44.1848C188.265 44.1848 184.095 48.6748 184.095 56.0448V77.2548C184.095 78.2948 183.255 79.1248 182.225 79.1248H177.155C176.115 79.1248 175.285 78.2848 175.285 77.2548V77.2448Z"></path>
<path fill="#202020" d="M218.265 67.985C218.265 61.415 222.275 57.085 229.325 56.125L245.595 53.725V50.755C245.595 46.185 242.465 43.785 237.255 43.785C232.695 43.785 229.465 45.625 228.525 48.955C228.295 49.755 227.525 50.275 226.695 50.275H222.135C220.875 50.275 219.955 49.085 220.255 47.865C221.955 40.865 228.325 36.895 237.415 36.895C248.075 36.895 254.085 42.505 254.085 51.075V77.195C254.085 78.265 253.215 79.125 252.155 79.125H247.835C246.805 79.125 245.955 78.315 245.905 77.285L245.675 72.705C243.115 77.355 238.065 80.155 232.125 80.155C223.635 80.155 218.265 75.025 218.265 67.975V67.985ZM245.595 63.975V60.205L232.365 62.055C228.595 62.615 226.835 64.375 226.835 67.585C226.835 71.035 229.475 73.195 234.125 73.195C240.295 73.195 245.585 69.345 245.585 63.985L245.595 63.975Z"></path>
<path fill="#202020" d="M262.685 77.105V39.865C262.685 38.755 263.585 37.855 264.695 37.855H269.225C270.315 37.855 271.205 38.715 271.235 39.805L271.415 45.865C273.655 40.575 277.985 37.045 283.915 37.045C284.005 37.045 284.095 37.045 284.185 37.045C285.275 37.075 286.155 37.965 286.155 39.055V43.685C286.155 44.815 285.225 45.735 284.105 45.695C283.885 45.695 283.655 45.685 283.435 45.685C275.985 45.685 271.495 49.935 271.495 58.105V77.085C271.495 78.195 270.595 79.095 269.485 79.095H264.695C263.585 79.095 262.685 78.195 262.685 77.085V77.105Z"></path>
<path fill="#202020" d="M298.365 67.985V44.505H292.265C291.205 44.505 290.355 43.645 290.355 42.595V39.765C290.355 38.705 291.215 37.855 292.265 37.855H298.365V26.865C298.365 25.805 299.225 24.955 300.275 24.955H305.265C306.325 24.955 307.175 25.815 307.175 26.865V37.855H316.485C317.545 37.855 318.395 38.715 318.395 39.765V42.595C318.395 43.655 317.535 44.505 316.485 44.505H307.175V67.025C307.175 71.115 308.695 72.955 313.585 72.955C314.495 72.955 315.495 72.845 316.405 72.695C317.575 72.495 318.635 73.395 318.635 74.575V77.715C318.635 78.625 317.995 79.405 317.105 79.595C315.445 79.945 313.475 80.165 311.905 80.165C302.845 80.165 298.355 76.005 298.355 67.985H298.365Z"></path>
<path fill="#202020" d="M325.475 77.135V39.845C325.475 38.745 326.365 37.855 327.465 37.855H332.055C333.125 37.855 334.005 38.705 334.045 39.775L334.205 44.265C336.295 40.345 340.455 36.895 346.945 36.895C353.435 36.895 357.365 39.695 359.285 44.905C362.175 39.855 366.825 36.895 372.905 36.895C382.355 36.895 386.695 42.985 386.695 52.515V77.135C386.695 78.235 385.805 79.125 384.705 79.125H379.875C378.775 79.125 377.885 78.235 377.885 77.135V54.285C377.885 47.475 375.395 44.185 369.955 44.185C364.025 44.185 360.575 48.595 360.575 56.205V77.135C360.575 78.235 359.685 79.125 358.585 79.125H353.755C352.655 79.125 351.765 78.235 351.765 77.135V54.365C351.765 47.635 349.365 44.185 343.905 44.185C337.985 44.185 334.295 48.515 334.295 56.285V77.135C334.295 78.235 333.405 79.125 332.305 79.125H327.475C326.375 79.125 325.485 78.235 325.485 77.135H325.475Z"></path>
<path fill="#202020" d="M393.705 59.0851V57.8851C393.705 45.3851 401.475 36.8951 414.135 36.8951C426.795 36.8951 433.605 45.4651 433.655 58.4551C433.655 59.5551 432.775 60.4551 431.675 60.4551H402.755C403.155 68.7051 407.165 73.1251 414.135 73.1251C419.275 73.1251 422.575 70.9651 424.085 67.5451C424.435 66.7551 425.185 66.2251 426.045 66.2251H430.475C431.965 66.2251 433.025 67.7351 432.475 69.1151C429.715 76.0451 423.275 80.1651 414.135 80.1651C401.315 80.1651 393.705 71.5951 393.705 59.0851ZM424.555 54.1151C423.915 47.7051 420.545 43.8551 414.055 43.8551C407.565 43.8551 403.875 47.3751 402.915 54.1151H424.555Z"></path>
<path fill="#202020" d="M444.134 67.9849V44.5049H438.044C436.984 44.5049 436.124 43.6449 436.124 42.5849V39.7849C436.124 38.7249 436.984 37.8649 438.044 37.8649H444.134V26.8849C444.134 25.8249 444.994 24.9649 446.054 24.9649H451.024C452.084 24.9649 452.944 25.8249 452.944 26.8849V37.8649H462.234C463.294 37.8649 464.154 38.7249 464.154 39.7849V42.5849C464.154 43.6449 463.294 44.5049 462.234 44.5049H452.944V67.0249C452.944 71.1149 454.464 72.9549 459.354 72.9549C460.264 72.9549 461.254 72.8549 462.164 72.6949C463.334 72.4949 464.404 73.4049 464.404 74.5949V77.7149C464.404 78.6349 463.764 79.4149 462.864 79.6049C461.204 79.9549 459.234 80.1749 457.674 80.1749C448.614 80.1749 444.124 76.0149 444.124 67.9949L444.134 67.9849Z"></path>
<path fill="#202020" d="M471.234 77.045V39.925C471.234 38.775 472.164 37.845 473.314 37.845H477.714C478.834 37.845 479.754 38.735 479.794 39.865L479.974 45.865C482.214 40.575 486.544 37.045 492.474 37.045C492.544 37.045 492.614 37.045 492.684 37.045C493.814 37.075 494.724 37.995 494.724 39.125V43.635C494.724 44.795 493.764 45.745 492.604 45.715C492.404 45.715 492.204 45.705 492.004 45.705C484.544 45.705 480.064 49.955 480.064 58.125V77.045C480.064 78.195 479.134 79.125 477.984 79.125H473.324C472.174 79.125 471.244 78.195 471.244 77.045H471.234Z"></path>
<path fill="#202020" d="M507.414 31.845H502.634C501.414 31.845 500.414 30.855 500.414 29.625V22.035C500.414 20.815 501.404 19.815 502.634 19.815H507.414C508.634 19.815 509.634 20.805 509.634 22.035V29.625C509.634 30.845 508.644 31.845 507.414 31.845ZM509.394 40.065V76.905C509.394 78.125 508.404 79.125 507.174 79.125H502.794C501.574 79.125 500.574 78.135 500.574 76.905V40.065C500.574 38.845 501.564 37.845 502.794 37.845H507.174C508.394 37.845 509.394 38.835 509.394 40.065Z"></path>
<path fill="#202020" d="M516.625 59.1551V57.8851C516.625 45.3851 523.995 36.8951 536.575 36.8951C546.045 36.8951 552.565 42.0151 554.445 50.2051C554.715 51.3951 553.775 52.5151 552.555 52.5151H547.745C546.865 52.5151 546.105 51.9151 545.875 51.0551C544.695 46.6951 541.695 44.0251 536.415 44.0251C529.285 44.0251 525.595 48.9951 525.595 57.8851V59.0851C525.595 67.9851 529.285 73.0251 536.415 73.0251C541.705 73.0251 544.765 70.2151 545.955 65.8251C546.185 64.9751 546.935 64.3751 547.825 64.3751H552.675C553.915 64.3751 554.855 65.5251 554.565 66.7251C552.825 73.6951 547.975 78.4151 540.865 79.7651C528.215 82.1551 516.635 72.0251 516.635 59.1551H516.625Z"></path>
<defs>
<linearGradient gradientUnits="userSpaceOnUse" y2="60.061" x2="4.87805" y1="39.939" x1="4.87805" id="paint0_linear_1591_27">
<stop stop-color="#00FFF2"></stop>
<stop stop-color="#00FFB2" offset="1"></stop>
</linearGradient>
<linearGradient gradientUnits="userSpaceOnUse" y2="79.878" x2="24.3903" y1="20.122" x1="24.3903" id="paint1_linear_1591_27">
<stop stop-color="#00FFF2"></stop>
<stop stop-color="#00FFB2" offset="1"></stop>
</linearGradient>
<linearGradient gradientUnits="userSpaceOnUse" y2="100" x2="43.9025" y1="0" x1="43.9025" id="paint2_linear_1591_27">
<stop stop-color="#00FFF2"></stop>
<stop stop-color="#00FFB2" offset="1"></stop>
</linearGradient>
<linearGradient gradientUnits="userSpaceOnUse" y2="79.878" x2="63.4147" y1="20.122" x1="63.4147" id="paint3_linear_1591_27">
<stop stop-color="#00FFF2"></stop>
<stop stop-color="#00FFB2" offset="1"></stop>
</linearGradient>
<linearGradient gradientUnits="userSpaceOnUse" y2="60.061" x2="82.9269" y1="39.939" x1="82.9269" id="paint4_linear_1591_27">
<stop stop-color="#00FFF2"></stop>
<stop stop-color="#00FFB2" offset="1"></stop>
</linearGradient>
</defs>
</svg>
